<svg width="49" height="49" viewBox="0 0 49 49" fill="none" xmlns="http://www.w3.org/2000/svg">
<circle cx="24.5" cy="24.5" r="24.5" fill="#202433"/>
<path d="M24.2559 20.3398L22.127 25.7402C22.3743 25.7467 22.6348 25.7533 22.9082 25.7598C23.1882 25.7598 23.5592 25.7598 24.0215 25.7598C24.5553 25.7598 24.972 25.7598 25.2715 25.7598C25.571 25.7533 25.8509 25.7467 26.1113 25.7402L24.2559 20.3398ZM23.7188 17.9961H26.1016C27.0391 20.7435 27.931 23.2695 28.7773 25.5742C29.6302 27.8724 30.2259 29.4023 30.5645 30.1641C30.7077 30.5091 30.8867 30.7565 31.1016 30.9062C31.3229 31.0495 31.6159 31.1211 31.9805 31.1211H32.1953V32C31.3685 31.9609 30.7337 31.9349 30.291 31.9219C29.8483 31.9089 29.4772 31.9023 29.1777 31.9023C28.8913 31.9023 28.5202 31.9089 28.0645 31.9219C27.6087 31.9349 26.9479 31.9609 26.082 32V31.1211H26.2578C26.7721 31.1211 27.1204 31.0625 27.3027 30.9453C27.485 30.8281 27.5762 30.6198 27.5762 30.3203C27.5762 30.2292 27.5632 30.1217 27.5371 29.998C27.5176 29.8743 27.472 29.7018 27.4004 29.4805L26.5996 27.1172C26.2285 27.1107 25.7402 27.1042 25.1348 27.0977C24.5293 27.0846 24.1517 27.0781 24.002 27.0781C23.722 27.0781 23.1589 27.0879 22.3125 27.1074C22.0065 27.1139 21.7689 27.1172 21.5996 27.1172L21.5605 27.2148C20.9225 28.7708 20.6035 29.7539 20.6035 30.1641C20.6035 30.5026 20.6979 30.7467 20.8867 30.8965C21.082 31.0462 21.401 31.1211 21.8438 31.1211H22.0195V32C21.2773 31.9609 20.7012 31.9349 20.291 31.9219C19.8809 31.9089 19.5423 31.9023 19.2754 31.9023C19.054 31.9023 18.7611 31.9089 18.3965 31.9219C18.0384 31.9349 17.5143 31.9609 16.8242 32V31.1211C17.293 31.1211 17.6673 31.0397 17.9473 30.877C18.2272 30.7142 18.4648 30.4408 18.6602 30.0566C18.9401 29.5488 19.5716 28.1296 20.5547 25.7988C21.5378 23.4681 22.5924 20.8672 23.7188 17.9961Z" fill="white"/>
</svg>
